<?xml version="1.0" standalone="no"?>
<!DOCTYPE svg PUBLIC "-//W3C//DTD SVG 1.1//EN" "http://www.w3.org/Graphics/SVG/1.1/DTD/svg11.dtd" >
<!--
2013-9-30: Created.
-->
<svg>
<metadata>
Created by iconfont
</metadata>
<defs>

<font id="iconfont" horiz-adv-x="1024" >
  <font-face
    font-family="iconfont"
    font-weight="500"
    font-stretch="normal"
    units-per-em="1024"
    ascent="896"
    descent="-128"
  />
    <missing-glyph />
    
    <glyph glyph-name="x" unicode="x" horiz-adv-x="1001"
d="M281 543q-27 -1 -53 -1h-83q-18 0 -36.5 -6t-32.5 -18.5t-23 -32t-9 -45.5v-76h912v41q0 16 -0.5 30t-0.5 18q0 13 -5 29t-17 29.5t-31.5 22.5t-49.5 9h-133v-97h-438v97zM955 310v-52q0 -23 0.5 -52t0.5 -58t-10.5 -47.5t-26 -30t-33 -16t-31.5 -4.5q-14 -1 -29.5 -0.5
t-29.5 0.5h-32l-45 128h-439l-44 -128h-29h-34q-20 0 -45 1q-25 0 -41 9.5t-25.5 23t-13.5 29.5t-4 30v167h911zM163 247q-12 0 -21 -8.5t-9 -21.5t9 -21.5t21 -8.5q13 0 22 8.5t9 21.5t-9 21.5t-22 8.5zM316 123q-8 -26 -14 -48q-5 -19 -10.5 -37t-7.5 -25t-3 -15t1 -14.5
t9.5 -10.5t21.5 -4h37h67h81h80h64h36q23 0 34 12t2 38q-5 13 -9.5 30.5t-9.5 34.5q-5 19 -11 39h-368zM336 498v228q0 11 2.5 23t10 21.5t20.5 15.5t34 6h188q31 0 51.5 -14.5t20.5 -52.5v-227h-327z" />
    

    
    <glyph glyph-name="tab-cart" unicode="&#58880;" d="M332.8 105.47199999999998q19.456 0 36.864-7.168t30.208-19.968 20.48-30.208 7.68-36.864-7.68-36.864-20.48-30.208-30.208-20.48-36.864-7.68q-20.48 0-37.888 7.68t-30.208 20.48-20.48 30.208-7.68 36.864 7.68 36.864 20.48 30.208 30.208 19.968 37.888 7.168zM758.784 103.42399999999998q19.456 0 37.376-7.168t30.72-19.968 20.48-30.208 7.68-36.864-7.68-36.864-20.48-30.208-30.72-20.48-37.376-7.68-36.864 7.68-30.208 20.48-20.48 30.208-7.68 36.864 7.68 36.864 20.48 30.208 30.208 19.968 36.864 7.168zM930.816 685.056q28.672 0 44.544-7.68t22.528-18.944 6.144-24.064-3.584-22.016-13.312-37.888-22.016-62.976-23.552-68.096-18.944-53.248q-13.312-40.96-33.28-56.832t-49.664-15.872l-35.84 0-65.536 0-86.016 0-96.256 0-253.952 0 14.336-92.16 517.12 0q49.152 0 49.152-41.984 0-20.48-9.728-35.84t-38.4-14.336l-49.152 0-94.208 0-118.784 0-119.808 0-99.328 0-55.296 0q-20.48 0-34.304 9.216t-23.04 24.064-14.848 32.256-8.704 32.768q-1.024 6.144-5.632 29.696t-11.264 58.88-14.848 78.848-16.384 87.552q-19.456 103.424-44.032 230.4l-76.8 0q-15.36 0-25.6 7.68t-16.896 18.432-9.216 23.04-2.56 22.528q0 20.48 13.824 33.792t37.376 12.288l103.424 0q20.48 0 32.768-6.144t19.456-15.36 10.24-18.944 5.12-16.896q2.048-8.192 4.096-23.04t4.096-30.208q3.072-18.432 6.144-38.912l700.416 0zM892.928 593.9200000000001l-641.024 2.048 35.84-185.344 535.552-1.024z"  horiz-adv-x="1028" />

    
    <glyph glyph-name="tab-home" unicode="&#58885;" d="M104.748753 360.75208c-9.18387-0.001024-18.350333 3.600233-25.206749 10.753596-13.340112 13.918647-12.870115 36.015639 1.048532 49.355751L455.824695 780.482292c15.076743 14.456225 35.025473 22.421586 56.167113 22.421586 21.133448 0 41.082179-7.960242 56.173257-22.413395l375.241328-359.629056c13.918647-13.339088 14.38762-35.43608 1.047508-49.355751-13.339088-13.917623-35.43608-14.388644-49.355751-1.048532L519.866038 730.0780090000001c-4.187984 4.011864-11.542043 4.020055-15.727979 0.006144L128.897754 370.45714499999997C122.133494 363.97344899999996 113.433956 360.753104 104.748753 360.75208zM779.622424-34.911046000000056L639.994624-34.911046000000056c-44.911778 0-81.450659 36.537857-81.450659 81.448611L558.543965 197.80468399999995l-93.08793 0 0-151.268143c0-44.910754-36.538881-81.448611-81.450659-81.448611L244.375528-34.91206999999997c-44.911778 0-81.450659 36.537857-81.450659 81.448611L162.924869 349.07180300000005c0 19.279062 15.628656 34.907718 34.907718 34.907718 19.279062 0 34.907718-15.628656 34.907718-34.907718l0-302.534238c0-6.415091 5.220133-11.633175 11.636247-11.633175l139.628824 0c6.416115 0 11.636247 5.219109 11.636247 11.633175L395.641623 232.712402c0 19.279062 15.628656 34.907718 34.907718 34.907718l162.903366 0c19.279062 0 34.907718-15.628656 34.907718-34.907718l0-186.174837c0-6.415091 5.220133-11.633175 11.635223-11.633175l139.6278 0c6.417138 0 11.637271 5.219109 11.637271 11.633175L791.260719 349.07180300000005c0 19.279062 15.628656 34.907718 34.907718 34.907718s34.907718-15.628656 34.907718-34.907718l0-302.534238C861.075131 1.6257879999999432 824.535226-34.911046000000056 779.622424-34.911046000000056zM861.369007 570.197364c-19.279062 0-34.907718 15.628656-34.907718 34.907718l0 127.994624L698.468712 733.099706c-19.279062 0-34.907718 15.628656-34.907718 34.907718s15.628656 34.907718 34.907718 34.907718l127.994624 0c38.495663 0 69.813388-31.318749 69.813388-69.815436l0-127.994624C896.276724 585.826019 880.648069 570.197364 861.369007 570.197364z"  horiz-adv-x="1024" />

    
    <glyph glyph-name="tab-user" unicode="&#58912;" d="M511.05442 262.19615999999996c195.295076 0 357.702583-140.377738 392.154862-325.714544l54.799652 0C926.958288 126.755088 777.266994 276.90177600000004 587.35272 309.20193900000004c106.116826 36.237011 182.538952 136.592347 182.538952 255.012974 0 148.919685-120.709873 269.657188-269.632627 269.657188-148.895124 0-269.607044-120.734433-269.607044-269.657188 0-120.813232 79.442048-223.054612 188.906269-257.352364C236.822834 269.37704399999996 94.321633 121.78465200000005 64.127536-63.51736000000005l54.752578 0C153.350813 121.81944599999997 315.76139 262.19615999999996 511.05442 262.19615999999996zM284.578731 564.214913c0 119.125719 96.557665 215.732505 215.68236 215.732505 119.122649 0 215.703851-96.603716 215.703851-215.732505 0-119.152326-96.581202-215.758088-215.703851-215.758088C381.135373 348.456824 284.578731 445.06361 284.578731 564.214913z"  horiz-adv-x="1025" />

    
    <glyph glyph-name="plus" unicode="&#59322;" d="M512 832C264.64 832 64 631.424 64 384c0-247.36 200.64-448 448-448 247.424 0 448 200.64 448 448C960 631.424 759.424 832 512 832zM734.272 342.784l-181.12 0.064 0-181.184c0-23.488-18.368-42.624-41.152-42.624-22.72-0.064-41.152 19.072-41.152 42.56L470.848 342.848l-181.12 0C266.24 342.784 246.976 361.344 246.976 383.936c0.128 22.656 19.264 41.152 42.88 41.088l180.992 0L470.848 606.208c0 23.68 18.496 42.688 41.152 42.752 22.72 0.064 41.152-19.136 41.152-42.688l0-181.248 181.12 0c23.616 0.128 42.752-18.432 42.752-41.152C777.024 361.344 758.016 342.784 734.272 342.784z"  horiz-adv-x="1024" />

    
    <glyph glyph-name="dingwei" unicode="&#58978;" d="M512-92.094c0 0 0 0 0 0-8.116 0-15.556 4.494-19.331 11.673l-242.4 462.044c-0.044 0.066-0.087 0.153-0.131 0.24-32.094 50.116-49.069 107.934-49.069 167.324 0 171.426 139.484 310.909 310.909 310.909s310.909-139.484 310.909-310.909c0-54.393-14.509-108.066-41.978-155.454-0.306-0.786-0.654-1.527-1.047-2.291l-248.553-471.884c-3.774-7.178-11.214-11.651-19.309-11.651zM290.022 399.774l222.022-423.164 227.542 431.934c0.48 1.462 1.134 2.88 1.92 4.233 24.72 41.454 37.767 88.626 37.767 136.407 0 147.382-119.891 267.273-267.273 267.273s-267.273-119.891-267.273-267.273c0-51.731 14.967-102.066 43.287-145.527 0.807-1.244 1.484-2.531 2.007-3.884zM512 438.546c-55.636 0-100.909 45.273-100.909 100.909s45.273 100.909 100.909 100.909c55.636 0 100.909-45.273 100.909-100.909s-45.273-100.909-100.909-100.909zM512 596.727c-31.571 0-57.273-25.702-57.273-57.273s25.702-57.273 57.273-57.273 57.273 25.702 57.273 57.273-25.702 57.273-57.273 57.273z"  horiz-adv-x="1024" />

    
    <glyph glyph-name="camera" unicode="&#59051;" d="M877.864-1.7720000000000482L145.152-1.7720000000000482c-41.505 0-75.152 33.647-75.152 75.148L70 561.854c0 41.501 33.647 75.148 75.152 75.148l177.971 0 10.822 90.649c2.725 22.921 25.232 40.921 50.335 40.921l250.059 0c25.1 0 47.984-18 51.217-40.921l12.758-90.649 179.551 0c41.501 0 75.151-33.647 75.151-75.148l0-488.479C953.016 31.875 919.365-1.7720000000000482 877.864-1.7720000000000482L877.864-1.7720000000000482zM915.438 561.854c0 20.757-16.813 37.574-37.573 37.574L746.353 599.428l-42.761 0-43.889 0-18.337 121.63c-0.809 5.337-6.84 9.602-13.507 9.602L386.851 730.66c-6.648 0-12.529-4.265-13.113-9.602l-13.639-121.63-41.464 0-41.97 0L145.152 599.428c-20.762 0-37.578-16.817-37.578-37.574l0-488.479c0-20.758 16.816-37.574 37.578-37.574l732.712 0c20.761 0 37.573 16.816 37.573 37.574L915.437 561.854 915.438 561.854zM521.146 111.178c-114.155 0-206.704 92.436-206.704 206.476 0 114.042 92.549 206.477 206.704 206.477 114.151 0 206.682-92.435 206.682-206.477C727.828 203.61300000000006 635.298 111.178 521.146 111.178L521.146 111.178zM520.882 486.949c-93.394 0-169.089-75.733-169.089-169.144 0-93.412 75.695-169.146 169.089-169.146 93.375 0 169.089 75.733 169.089 169.146C689.971 411.216 614.257 486.949 520.882 486.949L520.882 486.949zM562.082 190.34799999999996c-9.43-1.857-19.164-2.798-28.932-2.798-7.291 0-13.19 5.653-13.19 12.661 0 6.99 5.899 12.644 13.19 12.644 8.005 0 15.95 0.771 23.616 2.274 7.214 1.373 14.127-3.023 15.593-9.846C573.825 198.42499999999995 569.223 191.75800000000004 562.082 190.34799999999996L562.082 190.34799999999996zM473.537 201.33900000000006c-2.027 0-4.096 0.451-6.032 1.411-48.04 23.707-77.892 70.622-77.892 122.379 0 7.009 5.899 12.665 13.209 12.665 7.288 0 13.187-5.656 13.187-12.665 0-42.25 24.369-80.541 63.596-99.892 6.483-3.195 9.018-10.821 5.675-17.04C482.952 203.837 478.327 201.33900000000006 473.537 201.33900000000006L473.537 201.33900000000006zM239.088 674.581L126.363 674.581c-10.37 0-18.79 8.415-18.79 18.785 0 10.37 8.419 18.79 18.79 18.79l112.725 0c10.37 0 18.786-8.419 18.786-18.79C257.874 682.996 249.458 674.581 239.088 674.581L239.088 674.581zM239.088 674.581"  horiz-adv-x="1024" />

    
    <glyph glyph-name="tab-address" unicode="&#58903;" d="M512.002047-51.10672599999998c-219.270982 0-341.649194 48.301076-341.649194 129.346927 0 46.699602 70.920236 87.605244 169.088046 110.351294l23.205515-40.547485c-83.645049-14.536065-137.545656-40.329521-137.545656-69.793576 0-45.472658 138.379651-74.709539 286.900266-74.709539 148.526755 0 286.906405 29.236881 286.906405 74.709539 0 29.465079-53.899584 55.257511-137.546679 69.793576l23.206538 40.547485c98.16781-22.74605 169.077813-63.651692 169.077813-110.351294C853.647147-0.8992299999999886 724.31557-51.10672599999998 512.002047-51.10672599999998L512.002047-51.10672599999998zM739.214908 344.29162599999995c-7.971555-8.656147-196.655915-228.198306-196.655915-228.198306-7.90811-9.616008-16.569374-16.311501-25.942859-16.311501-9.377578 0-16.447601 7.495718-23.633257 16.311501 0 0-212.783221 232.599546-216.389352 237.645468-3.609201 5.050016-8.53949 11.474332-12.497639 18.102287-28.030403 44.956911-46.617737 96.411817-46.617737 153.264663 0 162.378228 131.860167 293.999964 294.522873 293.999964 162.659637 0 294.529013-131.621736 294.529013-293.999964 0-58.634422-17.423835-113.100918-47.117111-158.922523C751.272525 355.48557300000004 743.562936 348.619188 739.214908 344.29162599999995L739.214908 344.29162599999995zM512.002047 764.536876c-133.275399 0-241.317091-107.847264-241.317091-240.886279 0-43.914162 14.406105-83.290985 36.419468-115.342981 7.257288-11.489682 29.978778-38.296211 29.978778-38.296211l181.620477-201.983247 165.487032 196.383716c0 0 8.728802 10.343579 19.165502 25.444509 26.66122 38.547944 49.959855 80.743976 49.959855 133.794216C753.315044 656.689612 645.282562 764.536876 512.002047 764.536876L512.002047 764.536876zM512.002047 411.65485c-62.776765 0-113.663736 50.79999-113.663736 113.451912 0 62.666248 50.886971 113.466238 113.663736 113.466238 62.778812 0 113.659643-50.79999 113.659643-113.466238C625.661689 462.45484 574.776765 411.65485 512.002047 411.65485L512.002047 411.65485zM512.002047 583.9161690000001c-32.530904 0-58.905598-26.335808-58.905598-58.809407 0-32.459273 26.37981-58.795081 58.905598-58.795081 32.532951 0 58.906621 26.335808 58.906621 58.795081C570.908668 557.5854770000001 544.533974 583.9161690000001 512.002047 583.9161690000001L512.002047 583.9161690000001zM512.002047 583.9161690000001"  horiz-adv-x="1024" />

    
    <glyph glyph-name="saomiao" unicode="&#58954;" d="M518.425851 388.925173l327.898005-312.26598c-87.63492-92.025926-204.25908-139.819442-321.989435-142.667304-117.740588-2.895957-236.567927 39.151695-328.581574 126.783545l312.26291 327.906192c1.12666-1.087774 2.212388-2.12643 5.263887-2.044566C516.298398 386.708692 517.340123 387.798513 518.425851 388.925173M62.496891 388.925173 961.502086 388.925173 961.502086 379.073804 62.496891 379.073804 62.496891 388.925173ZM507.053849 833.500551 516.945127 833.500551 516.945127-65.500551 507.053849-65.500551 507.053849 833.500551ZM512.011768-52.32753c240.58952 0 436.322413 195.729823 436.322413 436.311157 0 240.606917-195.73187 436.347996-436.322413 436.347996-240.613056 0-436.353113-195.74108-436.353113-436.347996C75.658655 143.403317 271.397688-52.32753 512.011768-52.32753M514.462586 723.189166c188.411137 0 341.65124-153.268756 341.65124-341.655334 0-188.402951-153.240103-341.647147-341.65124-341.647147-188.394764 0-341.66045 153.244196-341.66045 341.647147C172.802136 569.92041 326.068845 723.189166 514.462586 723.189166M514.462586 229.214704c83.97353 0 152.316058 68.343551 152.316058 152.320151 0 83.977623-68.342528 152.299685-152.316058 152.299685-83.980693 0-152.298662-68.321038-152.298662-152.299685C362.164948 297.558256 430.481893 229.214704 514.462586 229.214704M512.011768-72.916451c-252.354472 0-456.929754 204.578352-456.929754 456.900078 0 252.365728 204.576305 456.932824 456.929754 456.932824 252.335029 0 456.906218-204.567096 456.906218-456.932824C968.917986 131.661901 764.345774-72.916451 512.011768-72.916451L512.011768-72.916451 512.011768-72.916451zM514.462586 702.607408c-177.317475 0-321.07153-143.755078-321.07153-321.072553 0-177.311335 143.754055-321.067436 321.07153-321.067436s321.07153 143.755078 321.07153 321.067436C835.534116 558.85233 691.780061 702.607408 514.462586 702.607408L514.462586 702.607408 514.462586 702.607408zM514.462586 208.63704c-95.481631 0-172.878372 77.383438-172.878372 172.897815 0 95.469352 77.396741 172.878372 172.878372 172.878372 95.471398 0 172.895769-77.409021 172.895769-172.878372C687.358355 286.020478 609.933985 208.63704 514.462586 208.63704L514.462586 208.63704 514.462586 208.63704zM851.194794 292.74667c32.726356 0 59.254545-26.536376 59.254545-59.257615 0-32.708959-26.52819-59.286268-59.254545-59.286268-32.759101 0-59.294454 26.577309-59.294454 59.286268C791.899316 266.210293 818.435693 292.74667 851.194794 292.74667L851.194794 292.74667zM373.694539 719.89719c32.720216 0 59.270918-26.542516 59.270918-59.275012 0-32.728402-26.551726-59.276035-59.270918-59.276035-32.744775 0-59.295478 26.546609-59.295478 59.276035C314.399061 693.354674 340.950787 719.89719 373.694539 719.89719L373.694539 719.89719z"  horiz-adv-x="1024" />

    
    <glyph glyph-name="yiguoqidikouquan" unicode="&#58905;" d="M513.760136 55.345785c-149.110118 0-298.220237-0.025583-447.330355 0.01535-41.127827 0.010233-52.333343 11.819517-52.297527 52.937111 0.13815 182.3378 0.04605 364.680718 0.081867 547.018518 0.010233 45.850517 11.39995 57.316984 56.989517 57.316984 293.958047 0.025583 587.916095 0.0307 881.874142 0 40.263109-0.005117 55.915015-14.899755 56.196432-54.441413 0.368401-51.120692-0.393984-102.251616 0.353051-153.367191 0.250717-17.192025-5.428791-23.628801-23.199001-25.020537-53.111078-4.154739-88.53893-43.010763-89.705531-95.66134-1.094968-49.447539 34.685934-89.398531 86.937411-96.029741 17.652526-2.241103 26.765323-8.191795 26.187138-28.648259-1.442902-51.084875-0.281417-102.236266-0.537251-153.356958-0.189317-37.720122-13.328936-50.726708-50.777874-50.742058C810.271404 55.309969 662.01577 55.350902 513.760136 55.345785zM509.66168 78.094519c148.265867 0 296.531734 0.429801 444.787368-0.424684 24.626553-0.143267 33.330015 7.905262 32.424364 32.582981-1.560586 42.545146-1.432669 85.228442 0.0307 127.783821 0.644701 18.819128-5.694858 28.141708-23.685085 31.87688-43.532664 9.041163-69.376985 39.347224-83.652506 78.162314-23.741368 64.551961 15.89239 133.545196 87.505362 153.116474 16.521741 4.512907 19.775946 11.174816 19.576395 25.834088-0.588418 43.450797-1.371269 86.952761 0.235367 130.352391 0.936351 25.271254-9.864948 32.710898-33.109999 32.685315-294.822765-0.317234-589.64553-0.332584-884.468296 0.01535-23.679968 0.025583-32.823465-8.360646-32.716015-33.074182 0.793084-183.197402 0.874951-366.39992-0.102333-549.592205-0.133034-24.462819 8.432279-29.84556 30.940529-29.72276C214.833798 78.478269 362.250297 78.094519 509.66168 78.094519zM188.288492 143.633998l23.664618 0 0-30.060461-23.664618 0 0 30.060461ZM188.288492 238.29247l23.664618 0 0-56.923-23.664618 0 0 56.923ZM188.288492 341.137621l23.664618 0 0-58.841753-23.664618 0 0 58.841753ZM188.288492 443.982771l23.664618 0 0-55.004247-23.664618 0 0 55.004247ZM188.288492 541.839165l23.664618 0 0-57.562584-23.664618 0 0 57.562584ZM187.648908 610.914266l24.304202 0 0-26.862539-24.304202 0 0 26.862539ZM734.365542 155.555849l23.664618 0 0-30.060461-23.664618 0 0 30.060461ZM734.365542 250.214321l23.664618 0 0-56.923-23.664618 0 0 56.923ZM734.365542 348.710298l23.664618 0 0-58.841753-23.664618 0 0 58.841753ZM734.365542 447.206276l23.664618 0 0-55.004247-23.664618 0 0 55.004247ZM734.365542 545.062669l23.664618 0 0-57.562584-23.664618 0 0 57.562584ZM733.725958 614.13777l24.304202 0 0-26.862539-24.304202 0 0 26.862539Z"  horiz-adv-x="1024" />

    
    <glyph glyph-name="weibiaoti2fuzhi04" unicode="&#58913;" d="M838.4 416c-19.2 0-38.4-12.8-38.4-38.4 0-19.2 12.8-32 38.4-32 19.2 0 32 12.8 32 32C870.4 403.2 857.6 416 838.4 416zM851.2 236.8c-19.2 0-32-12.8-32-32l0-115.2c0-19.2-19.2-38.4-38.4-38.4L160 51.2c-19.2 0-38.4 19.2-38.4 38.4l0 576c0 19.2 19.2 38.4 38.4 38.4l620.8 0c19.2 0 38.4-19.2 38.4-38.4l0-121.6c0-19.2 12.8-32 32-32 19.2 0 32 12.8 32 32L883.2 678.4c0 51.2-44.8 96-96 96L153.6 774.4C108.8 768 64 729.6 64 678.4l0-582.4C64 38.4 108.8 0 153.6 0l633.6 0c51.2 0 96 44.8 96 89.6l0 115.2C883.2 224 870.4 236.8 851.2 236.8zM902.4 409.6l0-57.6c0-19.2-19.2-38.4-38.4-38.4L544 313.6C524.8 313.6 512 332.8 512 352L512 409.6C512 428.8 524.8 448 544 448l313.6 0C883.2 448 902.4 428.8 902.4 409.6zM870.4 505.6 544 505.6C492.8 505.6 454.4 473.6 448 422.4c0 0 0-6.4 0-6.4l0-70.4C448 294.4 492.8 256 544 256l326.4 0c51.2 0 89.6 44.8 89.6 89.6l0 64C960 467.2 915.2 505.6 870.4 505.6z"  horiz-adv-x="1024" />

    
    <glyph glyph-name="yiquxiao" unicode="&#58910;" d="M1224.98 748.358c0 81.547-66.094 147.642-147.642 147.642h-929.699c-81.547 0-147.642-66.095-147.642-147.642v-728.716c0-81.547 66.095-147.642 147.642-147.642h929.699c81.548 0 147.642 66.095 147.642 147.642v728.716zM940.497 174.080l-87.412 87.412c-6.708 6.707-10.857 15.972-10.858 26.207 0.001 10.233 4.151 19.499 10.86 26.205l-0.002 0.091c14.44 14.233 37.971 14.233 52.41 0l87.506-87.506 87.412 87.506c14.475 14.267 38.079 14.225 52.503-0.093 14.282-14.418 14.282-37.993 0-52.411l-87.505-87.412 87.505-87.505c14.271-14.386 14.271-37.932 0-52.318l-0.093-0.093c-6.707-6.708-15.973-10.857-26.208-10.858-10.232 0.002-19.498 4.152-26.204 10.86l-87.41 87.411-87.506-87.413c-6.686-6.753-15.959-10.935-26.208-10.936-10.247 0.002-19.519 4.184-26.201 10.935l-0.001 0.094c-6.771 6.661-10.967 15.921-10.968 26.162 0.002 10.238 4.198 19.498 10.965 26.153l87.415 87.508zM651.636 146.525c0 25.534-21.011 46.546-46.545 46.546h-372.371c-25.534 0-46.545-21.012-46.545-46.546s21.011-46.545 46.545-46.545h372.371c25.534 0 46.545 21.011 46.545 46.545zM744.727 384c-0.022 12.868-5.219 24.519-13.621 32.984-8.439 8.362-20.094 13.55-32.961 13.561l-465.419-0c-12.869-0.022-24.519-5.219-32.984-13.621-17.882-18.122-17.882-47.726 0.030-65.878 8.469-8.392 20.124-13.58 32.99-13.591l465.419 0c12.381 0 24.203 4.933 32.954 13.591 8.392 8.468 13.58 20.123 13.591 32.99zM1024 621.475c0 25.534-21.011 46.545-46.545 46.545h-744.728c-25.531-0.003-46.538-21.014-46.538-46.545 0-25.532 21.007-46.542 46.538-46.546h744.728c25.534 0 46.545 21.012 46.545 46.546z"  horiz-adv-x="1303" />

    
    <glyph glyph-name="minzongwei" unicode="&#58927;" d="M931.379272 87.92827s80.696554 8.019877 81.802744 44.911311-92.14562 54.092687-114.04818 63.384682c-21.847251 9.236686-27.654748 13.772064-27.654748 13.772064s1.10619 13.827374-5.752187 23.06406c-7.024306 9.236686-5.752188 35.729934-5.752188 35.729934s8.075186 2.378308 32.190127 14.988873c24.225559 12.665874 48.395809 23.06406 49.612617 49.557308 1.10619 26.493248-39.214432 52.986497-87.610241 66.813871s-102.543805 25.387058-102.543805 25.387058-16.150373 12.610565-13.827373 24.17025c2.322999 11.504375 4.590688 21.90256 4.590688 21.90256s82.908934 26.493248 84.125742 81.913363c1.161499 55.198877-54.203306 65.652371-112.997299 85.121313-58.793994 19.634871-81.802744 33.517554-110.618991 54.203306-28.760938 20.685751-47.234309 41.482122-47.234309 41.482122s4.645998 23.119369-1.1615 36.836124c-5.696878 13.882683-19.579561 20.85168-19.579561 20.851679l-1.10619 18.307443s9.236686 3.373879 5.752188 9.236686c-0.387166 0.553095-0.608404 1.10619-0.829643 1.659285A41.150265 41.150265 0 0 1 515.285937 896a41.094955 41.094955 0 0 1-28.926866-70.243059c-1.161499-2.654856-1.659285-5.918116 1.438047-8.407044 5.641569-4.701307 5.641569-24.225559 5.641568-24.225559s-21.791941-8.185805-22.898131-28.871556c-1.216809-20.741061 1.10619-29.977747 1.10619-29.977747S415.120441 665.138166 343.715882 639.861726c-71.459868-25.387058-121.017176-31.194555-137.05693-70.298369-16.205682-39.159123 18.362753-63.495301 33.351626-72.676677 15.044183-9.181376 44.91131-28.816247 44.91131-28.816247l-2.322999-33.462245s-12.610565-9.126067-24.170249-13.716754c-11.504375-4.590688-118.694177-26.493248-153.262612-55.309496-34.513125-28.871557-18.307443-56.194447 1.161499-69.136869 19.524252-12.997731 64.490872-33.462245 66.86918-38.052933 2.267689-4.701307-2.378308-39.159123-2.378308-39.159123s-63.274063-24.17025-101.326996-38.052933c-37.997623-13.827374-58.738684-24.17025-58.738684-50.552879 0-26.603867 40.320622-36.946743 55.309496-40.486551 14.988873-3.429189 27.654748-3.429189 27.654747-3.429188v-136.669764H21.814618v-78.041698h987.82759v78.041698h-78.318246l0.05531 137.886572z m-357.40996 438.438371c73.229772-7.798639 122.289295-29.64589 143.528141-40.929026v-35.564006c-21.90256 8.075186-72.621368 24.280869-143.528141 31.083937v45.409095zM488.847998 853.024522a16.758777 16.758777 0 1 0 33.517555-0.110619 16.758777 16.758777 0 0 0-33.517555 0.110619zM302.786855 478.855785c22.068489 13.661445 78.594793 42.035217 172.289079 49.004213v-44.579454c-79.424436-5.53095-147.233877-30.309604-172.289079-40.54186v36.117101zM193.605911 278.74603c29.64589 15.210111 146.404235 66.482014 360.894458 62.665658 155.530301-2.820784 254.644917-46.459976 285.618235-62.333801v-47.953333c-35.398077 16.095063-160.12099 66.260776-336.337042 65.320515-146.90202-0.940261-277.764286-49.557308-310.23096-62.444421v44.745382z m-65.154586-186.116452s143.915307 91.537215 395.407584 86.946527c228.483526-4.203522 379.257211-86.946527 379.257211-86.946527v-141.702928h-252.875014v134.623312h-56.470995v-134.623312h-30.586151v134.623312H481.436526v-134.623312h-30.586151v134.623312h-56.415686v-134.623312h-268.251053l2.267689 141.702928z"  horiz-adv-x="1024" />

    
    <glyph glyph-name="lvyou" unicode="&#58955;" d="M556.19584 175.94368l-150.50752 29.55264c2.17088 16.71168 3.76832 32.84992 4.64896 48.31232l103.17824 69.28384a1307.648 1307.648 0 0 0 42.68032-147.1488z m-123.57632 314.38848l-50.8928-34.16064c4.64896-11.71456 9.05216-24.064 12.82048-37.45792l86.87616-17.05984c-13.90592 29.81888-29.42976 58.44992-46.87872 84.80768a82.7392 82.7392 0 0 0-1.92512 3.87072z m76.02176-153.82528a917.0944 917.0944 0 0 1-20.21376 49.68448l-90.19392 17.7152c9.23648-37.74464 14.4384-81.73568 12.9024-132.85376l97.50528 65.45408zM248.99584 571.22816a42.27072 42.27072 0 0 1-2.7648-14.72512c0-16.56832 9.46176-30.78144 23.22432-38.01088-1.45408-4.9152-2.47808-10.01472-2.47808-15.36a54.8864 54.8864 0 0 1 54.86592-54.8864 54.72256 54.72256 0 0 1 49.52064 31.62112c1.67936-3.4816 3.39968-6.94272 5.0176-10.6496l50.46272 33.93536a212.74624 212.74624 0 0 1-2.3552 5.18144 178.50368 178.50368 0 0 0-8.23296 19.90656c6.28736-3.584 13.45536-5.81632 21.21728-5.81632a43.008 43.008 0 1 1-30.57664 73.216c4.64896 62.83264 46.36672 119.25504 111.3088 150.9376a189.48096 189.48096 0 0 0 181.06368-8.13056c-52.87936 73.80992-152.71936 101.13024-237.1584 59.92448a188.928 188.928 0 0 1-98.28352-115.65056c-0.2048 36.51584 9.78944 68.38272 37.888 98.03776a189.39904 189.39904 0 0 0 191.32416 51.4048C523.10016 890.18368 419.59424 891.22816 348.38528 829.97248a188.88704 188.88704 0 0 1-65.67936-133.95968c-33.62816 50.36032-96.01024 77.18912-158.33088 62.27968-71.63904-17.1008-118.55872-83.37408-113.80736-154.46016a148.5824 148.5824 0 0 0 105.6768 95.15008 148.74624 148.74624 0 0 0 157.40928-60.928 188.96896 188.96896 0 0 1-153.27232-6.32832c-84.21376-41.59488-123.71968-137.216-97.66912-224.256a189.17376 189.17376 0 0 0 226.28352 163.75808z m378.59328-517.50912l69.79584 13.7216c-1.024 7.76192-1.76128 15.23712-2.17088 22.40512l-47.86176 32.13312a609.8944 609.8944 0 0 1-19.7632-68.25984z m80.95744 130.048l-23.63392 15.85152c-0.43008-0.88064-0.73728-1.536-0.90112-1.78176a304.90624 304.90624 0 0 1-21.77024-39.36256l40.28416 7.94624c1.78176 6.16448 3.7888 11.8784 6.02112 17.34656z m-49.5616-32.52224c-3.33824-7.55712-6.43072-15.29856-9.35936-23.08096l45.21984-30.33088c-0.7168 23.71584 1.65888 44.09344 6.00064 61.66528l-41.86112-8.25344z m-48.51712 206.88896a88.04352 88.04352 0 0 0 88.7808-23.87968c13.0048-13.74208 17.65376-28.48768 17.55136-45.42464a87.77728 87.77728 0 0 1-45.60896 53.6576 88.08448 88.08448 0 0 1-110.08-27.81184 88.02304 88.02304 0 0 0 84.04992 3.76832c30.14656-14.68416 49.52064-40.87808 51.63008-70.02112a19.98848 19.98848 0 1 1-14.19264-33.97632c3.584 0 6.90176 1.024 9.80992 2.6624-1.06496-3.072-2.29376-6.16448-3.80928-9.23648a31.86688 31.86688 0 0 0-1.10592-2.41664l23.4496-15.70816c0.73728 1.65888 1.536 3.29728 2.31424 4.9152a25.37472 25.37472 0 0 1 48.41472 10.77248c0 2.4576-0.45056 4.87424-1.1264 7.14752a19.84512 19.84512 0 0 1 10.79296 17.6128 19.43552 19.43552 0 0 1-1.29024 6.84032 87.73632 87.73632 0 0 0 56.58624-7.24992 88.02304 88.02304 0 0 0 48.41472-68.7104 87.9616 87.9616 0 0 1-45.32224 104.01792 87.63392 87.63392 0 0 1-71.12704 2.92864 69.12 69.12 0 0 0 73.0112 28.32384 69.0176 69.0176 0 0 0 49.00864-44.15488 68.99712 68.99712 0 0 1-126.27968 42.76224 87.49056 87.49056 0 0 1-30.43328 62.1568 87.79776 87.79776 0 0 1-113.43872 1.024z m109.34272-379.74016c-10.89536 30.53568-17.92 58.12224-21.6064 82.65728l-72.17152-14.21312c-1.6384-7.35232-3.09248-14.39744-4.42368-21.25824l68.77184-46.20288-11.96032 0.32768-58.10176 39.05536c-2.60096-14.336-4.52608-27.09504-5.98016-37.888-8.25344 0.12288-16.65024 0.12288-24.9856 0.16384a1742.5408 1742.5408 0 0 1-17.59232 119.48032l-183.17312-123.02336c-9.07264-0.4096-17.89952-0.83968-26.66496-1.29024l207.0528 139.01824a1662.8736 1662.8736 0 0 1-9.4208 45.91616l-155.66848 30.57664c-9.46176-63.11936-28.7744-135.12704-60.88704-216.53504-134.22592-7.68-224.82944-22.03648-224.82944-38.5024 0-24.55552 200.4992-44.48256 447.7952-44.48256 247.31648 0 447.77472 19.92704 447.77472 44.48256 0.02048 19.21024-122.53184 35.5328-293.92896 41.71776z"  horiz-adv-x="1024" />

    
    <glyph glyph-name="faxian" unicode="&#58882;" d="M360.296296 801.185185c-11.377778 0-18.962963-7.585185-18.962963-18.962963s7.585185-18.962963 18.962963-18.962963 18.962963 7.585185 18.962963 18.962963-7.585185 18.962963-18.962963 18.962963z m-37.925926-417.185185c-104.296296 0-322.37037-56.888889-322.37037-151.703704s216.177778-151.703704 322.37037-151.703703 170.666667 37.925926 170.666667 151.703703-60.681481 151.703704-170.666667 151.703704z m-18.962963-265.481481c-91.022222 0-267.377778 41.718519-267.377777 113.777777s176.355556 113.777778 267.377777 113.777778c121.362963 0 151.703704-37.925926 151.703704-113.777778s-32.237037-113.777778-151.703704-113.777777z m379.25926 246.518518c-113.777778 0-151.703704-60.681481-151.703704-170.666667 0-104.296296 56.888889-322.37037 151.703704-322.37037s151.703704 216.177778 151.703703 322.37037-37.925926 170.666667-151.703703 170.666667z m0-457.007407c-72.059259 0-113.777778 176.355556-113.777778 267.377777 0 121.362963 37.925926 151.703704 113.777778 151.703704s113.777778-32.237037 113.777777-151.703704c0-91.022222-41.718519-267.377778-113.777777-267.377777zM360.296296 896c-94.814815 0-151.703704-216.177778-151.703703-322.37037s37.925926-170.666667 151.703703-170.666667 151.703704 60.681481 151.703704 170.666667c0 104.296296-56.888889 322.37037-151.703704 322.37037z m0-455.111111c-75.851852 0-113.777778 32.237037-113.777777 151.703704 0 91.022222 41.718519 267.377778 113.777777 267.377777s113.777778-176.355556 113.777778-267.377777c0-121.362963-37.925926-151.703704-113.777778-151.703704z m568.888889 113.777778c-11.377778 0-18.962963-7.585185-18.962963-18.962963s7.585185-18.962963 18.962963-18.962963 18.962963 7.585185 18.962963 18.962963-7.585185 18.962963-18.962963 18.962963z m-208.592592 132.74074c-106.192593 0-170.666667-37.925926-170.666667-151.703703s60.681481-151.703704 170.666667-151.703704c104.296296 0 322.37037 56.888889 322.37037 151.703704s-216.177778 151.703704-322.37037 151.703703z m18.962963-265.481481c-121.362963 0-151.703704 37.925926-151.703704 113.777778s32.237037 113.777778 151.703704 113.777777c91.022222 0 267.377778-41.718519 267.377777-113.777777 0-73.955556-176.355556-113.777778-267.377777-113.777778z m-56.888889-417.185185c-11.377778 0-18.962963-7.585185-18.962963-18.962963s7.585185-18.962963 18.962963-18.962963 18.962963 7.585185 18.962963 18.962963-7.585185 18.962963-18.962963 18.962963zM113.777778 251.259259c-11.377778 0-18.962963-7.585185-18.962963-18.962963s7.585185-18.962963 18.962963-18.962963 18.962963 7.585185 18.962963 18.962963-7.585185 18.962963-18.962963 18.962963z"  horiz-adv-x="1042" />

    
    <glyph glyph-name="wanle" unicode="&#58887;" d="M861.184 495.616c-7.168 17.408-15.36 33.792-25.6 49.152 6.144 13.312 26.624 57.344 35.84 106.496 13.312 67.584 9.216 104.448 8.192 106.496l-5.12 40.96-24.576-33.792s-17.408-22.528-59.392-44.032c-29.696-15.36-101.376-30.72-102.4-30.72l-10.24-2.048c-6.144 3.072-12.288 6.144-18.432 8.192-47.104 19.456-96.256 29.696-147.456 29.696s-100.352-10.24-147.456-29.696c-8.192-4.096-16.384-7.168-24.576-12.288l-7.168 2.048c-20.48 4.096-77.824 18.432-102.4 30.72-40.96 21.504-58.368 43.008-59.392 44.032l-24.576 34.816-5.12-41.984c0-2.048-5.12-38.912 8.192-106.496 10.24-51.2 31.744-97.28 36.864-107.52-8.192-14.336-16.384-28.672-22.528-44.032-20.48-47.104-30.72-96.256-30.72-147.456s10.24-100.352 29.696-147.456c19.456-45.056 46.08-86.016 80.896-120.832 34.816-34.816 75.776-62.464 120.832-80.896 47.104-19.456 96.256-29.696 147.456-29.696s100.352 10.24 147.456 29.696c45.056 19.456 86.016 46.08 120.832 80.896 34.816 34.816 62.464 75.776 80.896 120.832C880.64 246.784 890.88 296.96 890.88 348.16s-10.24 100.352-29.696 147.456zM805.888 691.2c16.384 9.216 30.72 17.408 40.96 25.6-1.024-15.36-3.072-34.816-8.192-59.392-6.144-29.696-16.384-57.344-23.552-76.8-11.264 14.336-25.6 31.744-38.912 44.032-12.288 12.288-31.744 27.648-47.104 39.936 24.576 7.168 57.344 16.384 76.8 26.624z m-624.64-36.864c-5.12 23.552-7.168 44.032-8.192 59.392 10.24-8.192 23.552-16.384 40.96-25.6 19.456-10.24 52.224-19.456 76.8-25.6-15.36-12.288-33.792-28.672-47.104-39.936-13.312-12.288-27.648-30.72-38.912-44.032-7.168 17.408-17.408 46.08-23.552 75.776zM512 3.072c-190.464 0-345.088 154.624-345.088 345.088S321.536 693.248 512 693.248s345.088-154.624 345.088-345.088S702.464 3.072 512 3.072zM724.992 271.36c-57.344-57.344-133.12-88.064-214.016-88.064-80.896 0-156.672 31.744-212.992 88.064-6.144 6.144-17.408 6.144-23.552 0-6.144-6.144-6.144-17.408 0-23.552 31.744-31.744 69.632-56.32 110.592-73.728 39.936-16.384 82.944-24.576 125.952-24.576 44.032 0 86.016 8.192 125.952 24.576 41.984 17.408 78.848 41.984 110.592 73.728 6.144 6.144 6.144 17.408 0 23.552-5.12 6.144-15.36 6.144-22.528 0z"  horiz-adv-x="1024" />

    
    <glyph glyph-name="tab-meiTu" unicode="&#58901;" d="M66 410.5a399.2 315.1 0 1 1 798.4 0 399.2 315.1 0 1 1-798.4 0ZM198.6 229.39999999999998L148 29.899999999999977l197.3 80zM906.9 367.5C900.4 223.10000000000002 756.6 60 564.7 60c-30.9 0-60-1.3-88.6 4.3 50.1-34.6 118.4-43.7 191.5-43.7 155.9 0 269.3 84.5 276.1 212.4 3 56.3-19 106.4-36.8 134.5zM890.3 131.60000000000002l35.8-135.5-139.5 54.3zM309.6 426m-46.6 0a46.6 46.6 0 1 1 93.2 0 46.6 46.6 0 1 1-93.2 0ZM465.6 426m-46.6 0a46.6 46.6 0 1 1 93.2 0 46.6 46.6 0 1 1-93.2 0ZM620.8 426m-46.6 0a46.6 46.6 0 1 1 93.2 0 46.6 46.6 0 1 1-93.2 0Z"  horiz-adv-x="1024" />

    
    <glyph glyph-name="yifukuan" unicode="&#59101;" d="M857.6 224l-262.4-217.6-108.8 108.8c-19.2 12.8-38.4 12.8-51.2 0-12.8-12.8-12.8-32 0-44.8L576-64c12.8-12.8 32-12.8 44.8 0l12.8 12.8 268.8 230.4c12.8 12.8 12.8 32 0 44.8-12.8 12.8-32 12.8-44.8 0zM844.8 825.6h-640c-38.4 0-64-25.6-64-64v-768c0-38.4 25.6-64 64-64h192c19.2 0 32 12.8 32 32s-12.8 32-32 32H236.8c-19.2 0-32 12.8-32 32v704c0 19.2 12.8 32 32 32h576c19.2 0 32-12.8 32-32v-288c0-19.2 12.8-32 32-32s32 12.8 32 32v320c0 38.4-25.6 64-64 64zM371.2 332.8v-44.8h134.4v-89.6h64V288h128v44.8h-128v64h128v44.8H588.8l140.8 204.8h-70.4L576 518.4c-19.2-32-32-57.6-38.4-64-12.8 25.6-51.2 89.6-115.2 192H345.6l140.8-204.8H371.2v-44.8h134.4v-64H371.2z"  horiz-adv-x="1024" />

    
    <glyph glyph-name="bazi" unicode="&#58889;" d="M454.5-46.1c-9.3 0-18.6 0.3-27.9 0.9-55.8 3.7-109.2 18.2-158.7 43.1-47.8 24.1-90 56.8-125.5 97.3-35.4 40.5-62.3 86.6-79.8 137.2-18.2 52.4-25.5 107.2-21.8 163C44.5 451.2 59 504.6 84 554.1c24.1 47.8 56.8 90 97.2 125.4 40.4 35.4 86.6 62.3 137.2 79.8 52.4 18.2 107.2 25.5 163 21.8 62.8-4.1 122.3-21.9 176.8-52.8 10.3-5.8 13.9-18.9 8-29.2-5.8-10.3-18.9-13.9-29.2-8-48.8 27.7-102.1 43.7-158.4 47.4C274.4 752 97.1 596.8 83.6 392.6c-6.6-99 25.8-194.6 91.1-269.2C240 48.7 330.5 4 429.5-2.5c8.3-0.5 16.5-0.8 24.7-0.8 193.6 0 357.3 150.8 370.4 346.7 2.6 40.5-1.2 80.5-11.2 118.7-0.3 1.1-0.6 2.1-0.9 3.1-0.4 1.3-0.7 2.6-1.1 3.8-3 11.4 3.9 23.1 15.3 26.1s23.1-3.9 26.1-15.3c0.3-1 0.5-2 0.8-3 0.4-1.3 0.7-2.6 1.1-3.9 11.2-42.7 15.5-87.2 12.5-132.4-3.7-55.7-18.2-109-43.2-158.5-24.1-47.8-56.8-90-97.3-125.4-40.5-35.4-86.6-62.3-137.2-79.8-43.5-15.2-88.9-22.9-135-22.9zM451.1 374.4m-229.3 0a229.3 229.3 0 1 1 458.6 0 229.3 229.3 0 1 1-458.6 0ZM454.4 100.4c-6 0-12 0.2-18.1 0.6-71.3 4.7-136.6 37-183.6 90.7-47.1 53.8-70.4 122.7-65.7 194 4.7 71.3 37 136.6 90.7 183.6 53.8 47.1 122.7 70.4 194 65.7 40.4-2.6 78.9-14.1 114.2-34.1 10.3-5.8 13.9-18.9 8.1-29.2-5.8-10.3-18.9-13.9-29.2-8.1-29.7 16.8-62 26.5-96 28.7-59.9 4-117.8-15.6-163-55.2s-72.3-94.4-76.2-154.3c-4-59.9 15.6-117.8 55.2-163s94.4-72.3 154.3-76.2c123.7-8.2 231 85.8 239.2 209.5 1.6 24.5-0.6 48.6-6.7 71.6l-0.6 2.1c-0.2 0.7-0.4 1.3-0.6 2-3.3 11.4 3.3 23.2 14.7 26.5 11.4 3.2 23.2-3.3 26.5-14.7 0.2-0.8 0.4-1.6 0.7-2.4 0.2-0.7 0.4-1.3 0.5-1.9l0.1-0.4c7.3-27.6 10-56.4 8.1-85.6-4.7-71.3-37-136.6-90.7-183.6-49.2-43.1-111.1-66.3-175.9-66.3zM742.8 564.9l-261.9-212c-8.3-6.7-20.5-5.4-27.2 2.9l-2.6 3.2c-6.7 8.3-5.4 20.5 2.9 27.2l261.9 212c8.3 6.7 20.5 5.4 27.2-2.9l2.6-3.2c6.6-8.3 5.3-20.6-2.9-27.2zM816.1 536.3L709.6 556 703 661.5 870.6 813.4l-2.9-118.1 117.6-5.7-169.2-153.3zM750.2 592l52.9-9.7 76.8 69.6-56 2.7 1.5 60.1-78.4-71 3.2-51.7zM453.7 247.7c-15.9 0-32 3.2-47.5 9.8-61 26.3-89.2 97.3-62.9 158.3 12.8 29.6 36.3 52.4 66.2 64.2 29.9 11.8 62.6 11.3 92.2-1.5 10.8-4.7 15.8-17.3 11.2-28.1s-17.3-15.8-28.1-11.2c-19.1 8.2-40.2 8.6-59.4 0.9-19.3-7.6-34.4-22.3-42.6-41.4-8.2-19.1-8.6-40.2-0.9-59.5 7.6-19.3 22.4-34.4 41.4-42.6 39.3-17 85.1 1.2 102.1 40.5l0.1 0.1c3.2 7.3 5.2 15.2 6 23.5 0 0.5 0.1 0.9 0.1 1.2 0.4 11.5 9.8 20.7 21.4 20.7 11.8 0 21.4-9.6 21.4-21.4 0-1-0.1-1.8-0.1-2.4v-0.3l-0.1-0.9c-1.1-13.1-4.3-25.7-9.5-37.5-19.9-45.2-64.3-72.4-111-72.4z m77.7 113.8c0 0.1 0 0.1 0 0 0 0.1 0 0 0 0z"  horiz-adv-x="1024" />

    
    <glyph glyph-name="rili" unicode="&#58892;" d="M845.5 669.6c31 0 56.2-25.2 56.2-56.2V75c0-31-25.2-56.2-56.2-56.2H203.3c-31 0-56.2 25.2-56.2 56.2V613.4c0 31 25.2 56.2 56.2 56.2h642.2m0 38.1H203.3c-52.1 0-94.3-42.2-94.3-94.3V75c0-52.1 42.2-94.3 94.3-94.3h642.2c52.1 0 94.3 42.2 94.3 94.3V613.4c0.1 52.1-42.2 94.3-94.3 94.3zM719.3 110H314.6c-32.7 0-59.2 26.5-59.2 59.2V505.5c0 32.7 26.5 59.2 59.2 59.2h404.7c32.7 0 59.2-26.5 59.2-59.2v-336.3c0-32.7-26.5-59.2-59.2-59.2zM387.4 492v-52h-51.9v52h51.9m38.1 38H297.4v-128.1h128.1V530zM387.4 243.7v-51.9h-51.9v51.9h51.9m38.1 38H297.4v-128.1h128.1V281.7zM699 492v-52h-51.9v52H699m38.1 38H609v-128.1h128.1V530zM699 243.7v-51.9h-51.9v51.9H699m38.1 38H609v-128.1h128.1V281.7zM725.6 678.3c-14.3 0-26 11.6-26 26v62.3c0 14.3 11.6 26 26 26 14.3 0 26-11.6 26-26v-62.3c0-14.4-11.6-26-26-26zM305.9 678.3c-14.3 0-26 11.6-26 26v62.3c0 14.3 11.6 26 26 26 14.3 0 26-11.6 26-26v-62.3c-0.1-14.4-11.7-26-26-26z"  horiz-adv-x="1024" />

    
    <glyph glyph-name="shouye" unicode="&#58893;" d="M320 463.1v-240.3c0-51.5 38.6-93.6 85.7-93.6H620c47.2 0 85.7 42.1 85.7 93.6V463.1M748.1 430.8L512.9 628.2 277.7 430.8M859.9 563.8L824.4 612v89.7h35.5zM678.9-9.4H334.1c-86.2 0-156.4 75.8-156.4 169V546.2h37v-386.6c0-72.8 53.6-132.1 119.5-132.1H679c65.9 0 119.5 59.2 119.5 132.1V546.2h37v-386.6c-0.2-93.2-70.3-169-156.6-169zM884.9 475.7c-4.2 0-8.4 1.4-11.9 4.3L506.5 787.7 139.9 480c-7.8-6.6-19.5-5.5-26 2.3-6.6 7.8-5.5 19.5 2.3 26L494.6 825.9c6.9 5.8 16.9 5.8 23.8 0l378.4-317.6c7.8-6.6 8.8-18.2 2.3-26-3.7-4.4-8.9-6.6-14.2-6.6zM506.5 384.5c-53.8 0-97.6 43.8-97.6 97.6s43.8 97.6 97.6 97.6 97.6-43.8 97.6-97.6-43.8-97.6-97.6-97.6z m0 158.1c-33.4 0-60.6-27.2-60.6-60.6s27.2-60.6 60.6-60.6c33.4 0 60.6 27.2 60.6 60.6s-27.2 60.6-60.6 60.6z"  horiz-adv-x="1024" />

    
    <glyph glyph-name="youxiang" unicode="&#58894;" d="M751.1 210.1H294.2c-23.7 0-43.2 19.4-43.2 43.2V531.9c0 23.7 19.4 43.2 43.2 43.2h456.9c23.7 0 43.2-19.4 43.2-43.2v-278.6c0-23.8-19.4-43.2-43.2-43.2zM124.37 139.148l279.65 253.71 27.952-30.81-279.65-253.709zM618.435 363.95l28.712 30.101 252.971-241.294-28.712-30.101zM526.8 259.1h-1.5c-17.8 0.4-34.6 7.6-47.4 20.4l-0.4 0.4-347.1 367 30.2 28.6 346.9-366.8c5.1-5 11.8-7.9 18.7-8 6.5-0.1 12.5 2.1 17 6.5l327 365.7 31-27.7-327.8-366.7-0.4-0.5c-12.3-12.2-28.6-18.9-46.2-18.9zM841.4 72.3H173.1c-48 0-87 39-87 87V609.1c0 48 39 87 87 87h668.3c48 0 87-39 87-87v-449.9c0-47.9-39-86.9-87-86.9zM173.1 654.5c-25 0-45.4-20.4-45.4-45.4v-449.9c0-25 20.4-45.4 45.4-45.4h668.3c25 0 45.4 20.4 45.4 45.4V609.1c0 25-20.4 45.4-45.4 45.4H173.1z"  horiz-adv-x="1024" />

    
    <glyph glyph-name="kuangshan" unicode="&#59046;" d="M139.1 66H886v41.5H139.1V66z m145.2 368.5l209.1-244h60.7L403.8 366.4l260.9 322 209.8-497.9h53.1L679.3 785 370 405.9l-99.5 116.4-173-331.8h60.6l126.2 244z m590.3-244.2H261.1l0.1 0.1H158l0.1 0.1H97.6V149h829.9v41.5h-53l0.1-0.2zM180.6-17h663.9v41.5H180.6V-17z"  horiz-adv-x="1024" />

    
    <glyph glyph-name="xiangmumubiao-" unicode="&#58884;" d="M505.82 494.15a111.86 111.86 0 0 0 58.27-16.3q4.35-2.65 8.43-5.68l17.12 23q-5.13 3.83-10.64 7.19a140.59 140.59 0 0 1-73.19 20.48C428.16 522.85 365 459.67 365 382s63.17-140.84 140.83-140.84S646.66 304.36 646.66 382a140.32 140.32 0 0 1-8.36 47.9q-1.66 4.6-3.64 9.05l-26.23-11.63q1.56-3.52 2.89-7.18a112.16 112.16 0 1 0-105.49 74zM672.3 565.69a247.38 247.38 0 0 1-166.48 64.21c-136.7 0-247.89-111.2-247.89-247.9s111.2-247.89 247.89-247.89S753.71 245.32000000000005 753.71 382a247.7 247.7 0 0 1-34.87 126.84l-24.63-14.7A219.09 219.09 0 0 0 725 382c0-120.86-98.34-219.2-219.2-219.2S286.62 261.15 286.62 382s98.34 219.2 219.2 219.2A218.71 218.71 0 0 0 653 544.44zM833.89 547L809 532.69a222.37 222.37 0 0 0 22.58-54.09c7.69-28.9 9.26-59.51 9.26-96.59 0-184.72-150.28-335-335-335s-335 150.28-335 335 150.28 335 335 335c81.22 0 146.66-23.32 205.93-73.38l18.52 21.93c-64.75 54.68-136.08 80.15-224.45 80.15-200.54 0-363.7-163.15-363.7-363.69s163.16-363.7 363.7-363.7S869.51 181.47000000000003 869.51 382c0 39.33-1.74 72.05-10.21 104a251.57 251.57 0 0 1-25.41 61zM881 639.28a12 12 0 0 1-13.65 4.26l-40.73-14.28 24.13 39a12 12 0 0 1-0.5 13.34 36.67 36.67 0 0 1-51.16 8.1l-74.7-54.3a36.68 36.68 0 0 1-8.1-51.16l5.8-8-207.25-167.12A28.62 28.62 0 1 1 534.51 382a28.79 28.79 0 0 1-0.57 5.64L739 553l8-11.08a36.31 36.31 0 0 1 23.9-14.61 37.32 37.32 0 0 1 5.84-0.46 36.24 36.24 0 0 1 21.41 7l74.71 54.3a36.65 36.65 0 0 1 8.14 51.13z m-22.16-31.79l-74.71-54.3A12.75 12.75 0 0 0 766.4 556l-30.75 42.32a12.7 12.7 0 0 0 2.8 17.71l74.7 54.3a12.69 12.69 0 0 0 11.76 1.67l-36.45-58.93a12 12 0 0 1 14.15-17.6L864 617a12.68 12.68 0 0 0-5.16-9.51z"  horiz-adv-x="1024" />

    
    <glyph glyph-name="icon-test" unicode="&#58888;" d="M513.368 182.931c-111.416 0-202.06 90.641-202.06 202.057s90.643 202.057 202.06 202.057S715.43 496.404 715.43 384.988s-90.646-202.057-202.062-202.057z m0 365.628c-90.192 0-163.568-73.381-163.568-163.571s73.376-163.571 163.568-163.571c90.195 0 163.571 73.381 163.571 163.571s-73.376 163.571-163.571 163.571zM513.368 98.904c-157.747 0-286.086 128.336-286.086 286.083 0 121.759 77.235 230.386 192.189 270.314 10.054 3.464 21.009-1.83 24.494-11.87 3.487-10.041-1.825-21.004-11.865-24.494-99.485-34.55-166.326-128.57-166.326-233.95 0-136.526 111.069-247.597 247.595-247.597s247.595 111.072 247.595 247.597c0 10.629 8.616 19.243 19.246 19.243s19.246-8.614 19.246-19.243c-0.002-157.746-128.341-286.083-286.088-286.083zM170.134 425.229a19.28 19.28 0 0 0-3.288 0.281c-10.473 1.803-17.503 11.754-15.703 22.229 23.271 135.232 118.993 245.317 249.809 287.298 10.123 3.23 20.959-2.328 24.205-12.443 3.246-10.12-2.326-20.962-12.446-24.208-117.113-37.579-202.805-136.123-223.634-257.171-1.612-9.371-9.749-15.986-18.943-15.986zM459.402 21.577c-0.984 0-1.981 0.074-2.984 0.233-158.413 24.653-281.464 147.638-306.196 306.037-1.639 10.502 5.545 20.346 16.045 21.985 10.534 1.676 20.346-5.548 21.985-16.045C210.391 192.001 320.537 81.91 462.338 59.84c10.502-1.634 17.692-11.473 16.055-21.975-1.477-9.499-9.669-16.288-18.991-16.288zM567.535 21.609c-9.319 0-17.506 6.784-18.991 16.278-1.639 10.502 5.543 20.346 16.045 21.985C686.68 78.94 789.729 167.48 827.12 285.426c3.212 10.136 14.032 15.726 24.16 12.533 10.131-3.214 15.742-14.029 12.528-24.16-41.764-131.752-156.883-230.651-293.278-251.957a19.81 19.81 0 0 0-2.995-0.233zM861.689 365.745H696.185c-10.629 0-19.246 8.614-19.246 19.243 0 10.629 8.616 19.243 19.246 19.243h145.704c-9.624 166.17-143.105 299.651-309.275 309.278v-135.523c0-10.629-8.616-19.243-19.246-19.243-10.629 0-19.246 8.614-19.246 19.243V733.309c0 10.629 8.616 19.243 19.246 19.243 202.677 0 367.566-164.886 367.566-367.564 0-10.629-8.616-19.243-19.245-19.243zM462.985 286.359a19.241 19.241 0 0 0-19.245 19.243V464.368a19.245 19.245 0 0 0 28.867 16.665l137.496-79.38a19.241 19.241 0 0 0 0-33.33l-137.496-79.385a19.226 19.226 0 0 0-9.622-2.579z m19.246 144.678v-92.099l79.762 46.05-79.762 46.049zM513.368-47.301c-38.393 0-69.629 31.235-69.629 69.626s31.235 69.626 69.629 69.626 69.629-31.235 69.629-69.626-31.236-69.626-69.629-69.626z m0 100.766c-17.169 0-31.137-13.971-31.137-31.14s13.968-31.14 31.137-31.14 31.137 13.971 31.137 31.14-13.968 31.14-31.137 31.14zM152.991 316.879c-38.393 0-69.629 31.235-69.629 69.626s31.235 69.621 69.629 69.621c38.391 0 69.626-31.23 69.626-69.621s-31.235-69.626-69.626-69.626z m0 100.76c-17.169 0-31.137-13.966-31.137-31.135 0-17.169 13.968-31.14 31.137-31.14s31.135 13.971 31.135 31.14c0 17.17-13.966 31.135-31.135 31.135z"  horiz-adv-x="1024" />

    
    <glyph glyph-name="icon-test1" unicode="&#58890;" d="M485.048 637.794c-4.864 0-9.728 1.83-13.475 5.5-7.587 7.442-7.707 19.625-0.265 27.215l53.433 54.499-54.499 53.433c-7.587 7.442-7.707 19.625-0.265 27.215 7.436 7.601 19.625 7.707 27.215 0.271l68.239-66.91c7.587-7.442 7.707-19.625 0.265-27.215l-66.908-68.236a19.164 19.164 0 0 0-13.74-5.772zM510.735 123.733a19.251 19.251 0 0 0-15.528 7.871l-135 184.357a19.298 19.298 0 0 0-2.108 3.67c-9.187 21.036-13.846 43.429-13.846 66.555 0 91.802 74.683 166.483 166.483 166.483s166.483-74.681 166.483-166.483c0-22.463-4.405-44.267-13.09-64.805a19.264 19.264 0 0 0-2.18-3.851l-135.668-185.9a19.252 19.252 0 0 0-15.53-7.898l-0.016 0.001z m-118.171 213.19l118.145-161.338L629.497 338.36c6.126 15.185 9.229 31.267 9.229 47.826 0 70.575-57.416 127.997-127.991 127.997s-127.992-57.421-127.992-127.997c0-17.1 3.302-33.664 9.821-49.263zM510.735 298.707c-46.715 0-84.721 38.003-84.721 84.716 0 46.718 38.006 84.721 84.721 84.721s84.724-38.003 84.724-84.721c0-46.712-38.009-84.716-84.724-84.716z m0 130.951c-25.491 0-46.23-20.744-46.23-46.235s20.739-46.23 46.23-46.23c25.494 0 46.233 20.739 46.233 46.23 0 25.491-20.739 46.235-46.233 46.235zM546.966-1.533c-10.094 0-18.811 7.557-20.015 17.83-1.298 11.068 6.621 21.093 17.689 22.389a335.59 335.59 0 0 1 27.207 4.335c10.921 2.205 21.567-4.861 23.774-15.78 2.21-10.924-4.856-21.569-15.78-23.774a374.67 374.67 0 0 0-30.499-4.861c-0.8-0.094-1.592-0.139-2.376-0.139zM658.812 30.796c-7.527 0-14.749 4.23-18.215 11.47-4.811 10.055-0.564 22.101 9.489 26.912a340.684 340.684 0 0 1 24.37 12.915c9.625 5.616 21.979 2.368 27.597-7.259 5.616-9.623 2.366-21.981-7.259-27.597a378.733 378.733 0 0 0-27.284-14.454 20.106 20.106 0 0 0-8.698-1.987zM377.245 15.503a20.072 20.072 0 0 0-9.053 1.766 377.343 377.343 0 0 0-27.622 13.818c-9.752 5.391-13.285 17.671-7.891 27.423 5.389 9.752 17.67 13.29 27.421 7.889a335.828 335.828 0 0 1 24.646-12.325c10.162-4.57 14.696-16.517 10.126-26.679-3.248-7.218-10.219-11.601-17.627-11.892zM754.15 97.58a20.127 20.127 0 0 0-14.399 6.043c-7.805 7.954-7.689 20.73 0.263 28.536a332.133 332.133 0 0 1 18.836 20.104c7.274 8.436 20.018 9.389 28.456 2.11 8.443-7.274 9.389-20.015 2.115-28.456a373.39 373.39 0 0 0-21.135-22.557 20.124 20.124 0 0 0-14.136-5.78zM280.43 80.109a20.119 20.119 0 0 0-14.615 5.464 372.935 372.935 0 0 0-21.613 22.094c-7.456 8.279-6.786 21.041 1.495 28.497 8.284 7.456 21.041 6.789 28.497-1.5a332.7 332.7 0 0 1 19.268-19.692c8.119-7.637 8.508-20.407 0.873-28.523a20.097 20.097 0 0 0-13.905-6.34zM822.525 191.781c-3.024 0-6.09 0.685-8.98 2.12-9.975 4.97-14.034 17.081-9.067 27.061a338.743 338.743 0 0 1 11.274 25.164c4.126 10.313 15.891 15.551 26.217 11.47 10.33-4.077 15.504-15.531 11.48-25.884a71.86 71.86 0 0 1-0.253-0.641 381.284 381.284 0 0 0-12.594-28.104c-3.529-7.084-10.664-11.186-18.077-11.186zM209.958 172.75c-7.519-0.295-14.902 3.649-18.648 10.747a376.63 376.63 0 0 0-13.286 27.887c-4.373 10.249 0.39 22.103 10.638 26.476 10.265 4.388 22.106-0.395 26.481-10.638a336.327 336.327 0 0 1 11.851-24.882c5.204-9.853 1.432-22.061-8.421-27.263a20.105 20.105 0 0 0-8.615-2.327zM856.845 303.471c-0.886 0-1.78 0.06-2.684 0.179-11.045 1.465-18.811 11.614-17.344 22.657a331.097 331.097 0 0 1 2.488 27.433c0.541 11.132 10.127 19.658 21.135 19.171 11.132-0.541 19.715-10.005 19.174-21.137a371.994 371.994 0 0 0-2.79-30.78c-1.349-10.145-10.018-17.523-19.979-17.523zM154.823 308.853c-10.092 0-18.811 7.557-20.015 17.825a374.693 374.693 0 0 0-2.329 30.8c-0.38 11.137 8.342 20.472 19.479 20.849 11.068 0.422 20.474-8.337 20.854-19.479 0.31-9.136 1.01-18.377 2.076-27.463 1.298-11.068-6.621-21.093-17.689-22.394-0.797-0.093-1.591-0.138-2.376-0.138zM852.804 419.793c-9.397 0-17.811 6.604-19.752 16.172a337.367 337.367 0 0 1-6.589 26.758c-3.108 10.7 3.049 21.897 13.751 25.005 10.693 3.078 21.894-3.054 25.003-13.754a376.246 376.246 0 0 0 7.383-29.985c2.217-10.919-4.839-21.569-15.76-23.789a20.43 20.43 0 0 0-4.036-0.407zM160.611 425.101c-1.432 0-2.885 0.154-4.34 0.472-10.884 2.388-17.776 13.148-15.39 24.032 2.192 10 4.836 20.055 7.858 29.876 3.277 10.651 14.576 16.639 25.219 13.352 10.651-3.277 16.629-14.568 13.352-25.219a334.028 334.028 0 0 1-7.009-26.649c-2.066-9.429-10.418-15.864-19.69-15.864zM815.866 524.531c-6.93 0.138-13.605 3.843-17.23 10.331a337.694 337.694 0 0 1-14.424 23.501c-6.217 9.247-3.756 21.783 5.493 27.999 9.252 6.212 21.785 3.756 28.002-5.496a376.668 376.668 0 0 0 16.156-26.316c5.438-9.728 1.959-22.02-7.769-27.457a20.069 20.069 0 0 0-10.228-2.562zM203.737 533.211c-3.558 0-7.16 0.938-10.425 2.915-9.536 5.77-12.587 18.173-6.82 27.711a374.92 374.92 0 0 0 17.081 25.755c6.542 9.017 19.156 11.033 28.178 4.499 9.024-6.539 11.038-19.156 4.499-28.183a333.095 333.095 0 0 1-15.229-22.965c-3.794-6.267-10.455-9.732-17.284-9.732zM743.131 615.442a20.105 20.105 0 0 0-13.041 5.137 332.48 332.48 0 0 1-21.276 17.499c-8.895 6.718-10.663 19.368-3.947 28.263 6.711 8.9 19.368 10.663 28.26 3.95a372.309 372.309 0 0 0 23.871-19.637c8.304-7.427 9.015-20.184 1.584-28.488-4.083-4.568-9.775-6.838-15.451-6.724zM279.683 621.459a20.142 20.142 0 0 0-15.522 7.274c-7.128 8.565-5.961 21.286 2.607 28.416a376.555 376.555 0 0 0 24.539 18.759c9.129 6.395 21.708 4.186 28.106-4.936 6.4-9.121 4.191-21.703-4.933-28.104a337.527 337.527 0 0 1-21.902-16.743 20.09 20.09 0 0 0-12.895-4.666zM644.75 677.673c-2.49 0.05-5.01 0.567-7.442 1.594a339.23 339.23 0 0 1-25.82 9.684c-10.586 3.484-16.345 14.888-12.863 25.476 3.484 10.583 14.902 16.339 25.473 12.86a379.866 379.866 0 0 0 28.911-10.848c10.266-4.332 15.072-16.173 10.738-26.437-3.311-7.835-10.987-12.489-18.997-12.329zM380.171 680.208c-8.128 0-15.79 4.945-18.858 12.994-3.972 10.412 1.249 22.071 11.661 26.043a377.428 377.428 0 0 0 29.273 9.811c10.7 3.118 21.897-3.044 25.005-13.744 3.108-10.705-3.046-21.897-13.749-25.005a340.781 340.781 0 0 1-26.145-8.769 20.12 20.12 0 0 0-7.187-1.33zM523.482 703.088c-0.335 0-0.673 0.01-1.01 0.025a330.802 330.802 0 0 1-27.533 0.204c-11.207-0.432-20.479 8.327-20.867 19.464-0.387 11.137 8.329 20.477 19.466 20.864a375.834 375.834 0 0 0 30.919-0.223c11.13-0.551 19.71-10.015 19.161-21.147-0.533-10.79-9.448-19.187-20.136-19.187zM250.944 351.217c-10.629 0-19.246 8.614-19.246 19.243 0 113.57 71.233 217.179 177.255 257.813 9.911 3.808 21.052-1.151 24.857-11.085 3.803-9.924-1.159-21.052-11.083-24.855-91.237-34.969-152.539-124.13-152.539-221.873 0.001-10.629-8.615-19.243-19.244-19.243zM163.73 266.522c-8.656 0-16.519 5.882-18.675 14.666-7.129 29.055-10.743 59.092-10.743 89.272 0 205.892 167.507 373.393 373.398 373.393 10.629 0 19.246-8.614 19.246-19.243s-8.616-19.243-19.246-19.243c-184.668 0-334.907-150.242-334.907-334.907 0-27.093 3.241-54.043 9.635-80.107 2.533-10.322-3.784-20.739-14.106-23.274a19.4 19.4 0 0 0-4.602-0.557zM530.129-71.111c-4.864 0-9.728 1.83-13.472 5.5l-68.236 66.905c-7.59 7.442-7.709 19.625-0.27 27.215l66.905 68.236c7.442 7.601 19.63 7.707 27.215 0.271 7.59-7.442 7.709-19.625 0.271-27.215l-53.433-54.494 54.494-53.433c7.59-7.442 7.709-19.625 0.271-27.215a19.192 19.192 0 0 0-13.745-5.77zM598.008 110.764c-7.739 0-15.037 4.699-17.973 12.364-3.803 9.924 1.159 21.052 11.083 24.855 91.24 34.969 152.541 124.13 152.541 221.873 0 10.629 8.616 19.243 19.246 19.243s19.246-8.614 19.246-19.243c0-113.57-71.236-217.179-177.258-257.813a19.166 19.166 0 0 0-6.885-1.279zM506.139-3.537c-10.629 0-19.246 8.614-19.246 19.243s8.616 19.243 19.246 19.243c184.668 0 334.904 150.242 334.904 334.907 0 27.088-3.241 54.037-9.635 80.101-2.533 10.322 3.784 20.739 14.106 23.274 10.324 2.509 20.744-3.782 23.277-14.109 7.129-29.055 10.743-59.092 10.743-89.267 0.001-205.891-167.503-373.392-373.395-373.392z"  horiz-adv-x="1024" />

    
    <glyph glyph-name="mubiao" unicode="&#58950;" d="M512.7-74.2c-61.9 0-121.9 12.1-178.4 36-54.6 23.1-103.6 56.1-145.7 98.2-42.1 42.1-75.1 91.1-98.2 145.7-23.9 56.5-36 116.5-36 178.4s12.1 121.9 36 178.4c23.1 54.6 56.1 103.6 98.2 145.7 42.1 42.1 91.1 75.1 145.7 98.2 56.5 23.9 116.5 36 178.4 36s121.9-12.1 178.4-36c54.6-23.1 103.6-56.1 145.7-98.2 42.1-42.1 75.1-91.1 98.2-145.7 23.9-56.5 36-116.5 36-178.4s-12.1-121.9-36-178.4c-23.1-54.6-56.1-103.6-98.2-145.7-42.1-42.1-91.1-75.1-145.7-98.2-56.5-23.9-116.5-36-178.4-36z m0 896.6C271 822.4 74.4 625.8 74.4 384.1S271-54.2 512.7-54.2 951 142.4 951 384.1 754.4 822.4 512.7 822.4zM502.1 149.1c-58.1 0-112.8 22.6-153.9 63.8-41.1 41.1-63.8 95.8-63.8 153.9 0 58.1 22.6 112.8 63.8 153.9 41.1 41.1 95.8 63.8 153.9 63.8 49.8 0 96.7-16.4 135.6-47.4l-12.5-15.6c-35.3 28.1-77.9 43-123.1 43-52.8 0-102.4-20.6-139.8-57.9-37.3-37.3-57.9-87-57.9-139.8 0-52.8 20.6-102.5 57.9-139.8 37.3-37.3 87-57.9 139.8-57.9 52.8 0 102.5 20.6 139.8 57.9 37.3 37.3 57.9 87 57.9 139.8 0 45.2-14.9 87.7-42.9 123l15.6 12.5c30.9-38.9 47.3-85.7 47.3-135.5 0-58.1-22.6-112.8-63.8-153.9-41.1-41.1-95.8-63.8-153.9-63.8zM502.1 235.5c-35.1 0-68.1 13.7-92.9 38.5-24.8 24.8-38.5 57.8-38.5 92.9 0 35.1 13.7 68.1 38.5 92.9 24.8 24.8 57.8 38.5 92.9 38.5 26.7 0 52.4-8 74.3-23l-11.3-16.5c-18.6 12.8-40.4 19.5-63 19.5-29.7 0-57.7-11.6-78.8-32.6-21-21-32.6-49-32.6-78.8 0-29.8 11.6-57.7 32.6-78.8 21-21 49-32.6 78.8-32.6s57.7 11.6 78.8 32.6c21 21 32.6 49 32.6 78.8 0 22.6-6.7 44.4-19.5 62.9l16.5 11.3c15-21.9 23-47.6 23-74.3 0-35.1-13.7-68.1-38.5-92.9-24.8-24.8-57.8-38.4-92.9-38.4zM502.1 325.3c-11.1 0-21.5 4.3-29.4 12.2-7.8 7.8-12.2 18.3-12.2 29.4 0 11.1 4.3 21.5 12.2 29.4 7.8 7.8 18.3 12.2 29.4 12.2v-20c-5.8 0-11.2-2.2-15.2-6.3-4.1-4.1-6.3-9.5-6.3-15.2s2.2-11.2 6.3-15.2c4.1-4.1 9.5-6.3 15.2-6.3s11.2 2.2 15.2 6.3c4.1 4.1 6.3 9.5 6.3 15.2h20c0-11.1-4.3-21.5-12.2-29.4-7.8-8-18.2-12.3-29.3-12.3zM676.5 553.6c0-1.3 0.4-2.4 1.2-3.2 0.8-0.8 2.2-1.4 4.2-1.8v9.8c-1.8-0.1-3.2-0.6-4-1.4-1-0.8-1.4-2-1.4-3.4zM684.3 545v-11c1.8 0 3.2 0.6 4.1 1.5 1 1 1.5 2.2 1.5 3.7s-0.4 2.7-1.2 3.7c-0.8 1-2.2 1.6-4.4 2.1zM741.6 559.8h-33.8l2.9 2.9c8.4 8.4-4.4 21.2-12.8 12.8L695 573v33.9c0 3.8-4.2 5.5-6.9 2.8l-37.7-38.4c-0.8-0.8-1.2-1.8-1.2-3V526c-51-51-102.6-101.8-153.5-152.8-8.4-8.4 4.4-21.2 12.8-12.8L661.1 512l42.6 0.2c1.2 0 2.2 0.4 3 1.3L745 553c2.7 2.7 0.4 6.8-3.4 6.8zM691 533.7c-1.4-1.4-3.7-2.2-6.6-2.4v-4.1h-2.5v4.1c-3.3 0.3-5.6 1.1-7 2.7-1.4 1.5-2.1 3.7-2.1 6.5h3.2c0.1-2.1 0.5-3.6 1.3-4.6 0.8-1 2.3-1.6 4.5-1.8v11.4c-3 0.5-5.1 1.4-6.5 2.7-1.3 1.3-2 3-2 5.2 0 2.3 0.7 4.1 2.1 5.5 1.4 1.4 3.5 2.2 6.3 2.4v3.6h2.5v-3.6c2.8-0.3 4.8-1.1 6.1-2.4 1.2-1.3 1.9-3.1 1.9-5.3h-3.1c-0.2 1.6-0.7 2.8-1.4 3.6-0.7 0.8-1.8 1.2-3.5 1.4v-10.3c0.9-0.3 1.7-0.5 2.3-0.6 0.6-0.2 1.1-0.3 1.5-0.5 0.4-0.2 0.7-0.3 0.9-0.5 0.3-0.2 0.5-0.3 0.9-0.5 1.1-0.8 2-1.6 2.5-2.7 0.5-1 0.8-2.3 0.8-3.8 0-2.6-0.7-4.6-2.1-6z"  horiz-adv-x="1024" />

    


  </font>
</defs>
</svg>
